<svg width="19" height="18" viewBox="0 0 19 18" fill="none" xmlns="http://www.w3.org/2000/svg">
<path fill-rule="evenodd" clip-rule="evenodd" d="M14.8273 13.9327C15.6215 13.214 16.2732 12.4873 16.7386 11.9223C17.1217 11.4571 17.3132 11.2246 17.3132 10.8704C17.3132 10.5162 17.1217 10.2837 16.7386 9.8185C15.3369 8.11669 12.2452 4.94815 8.65662 4.94815C7.8353 4.94815 7.04001 5.11412 6.28506 5.39049L8.80762 7.91306C10.3228 7.98916 11.5379 9.2042 11.614 10.7194L14.8273 13.9327ZM6.07353 9.42161C5.8328 9.84989 5.6955 10.3441 5.6955 10.8704C5.6955 12.5058 7.02124 13.8315 8.65662 13.8315C9.18291 13.8315 9.67713 13.6942 10.1054 13.4535L12.3771 15.7252C11.2454 16.3584 9.98506 16.7926 8.65662 16.7926C5.06801 16.7926 1.97639 13.6241 0.574698 11.9223C0.191566 11.4571 0 11.2246 0 10.8704C0 10.5162 0.191566 10.2837 0.574698 9.8185C1.23671 9.01474 2.27569 7.8838 3.56595 6.91403L6.07353 9.42161Z" fill="white"/>
<path d="M1.74731 1L17.54 16.7927" stroke="white" stroke-width="2"/>
</svg>
