<svg width="19" height="12" viewBox="0 0 19 12" fill="none" xmlns="http://www.w3.org/2000/svg">
<path fill-rule="evenodd" clip-rule="evenodd" d="M18.0805 6C18.0805 5.64119 17.8864 5.40556 17.4983 4.93429C16.0782 3.21014 12.946 0 9.31025 0C5.67452 0 2.54231 3.21014 1.12222 4.93429C0.734059 5.40556 0.539978 5.64119 0.539978 6C0.539978 6.35881 0.734059 6.59444 1.12222 7.06571C2.54231 8.78986 5.67452 12 9.31025 12C12.946 12 16.0782 8.78986 17.4983 7.06571C17.8864 6.59444 18.0805 6.35881 18.0805 6ZM9.31026 9C10.9671 9 12.3103 7.65685 12.3103 6C12.3103 4.34315 10.9671 3 9.31026 3C7.6534 3 6.31026 4.34315 6.31026 6C6.31026 7.65685 7.6534 9 9.31026 9Z" fill="white"/>
</svg>
