<svg width="16" height="15" viewBox="0 0 16 15" fill="none" xmlns="http://www.w3.org/2000/svg">
<path fill-rule="evenodd" clip-rule="evenodd" d="M7.53846 1.93564C8.36015 0.931471 9.61908 0.291016 10.9308 0.291016C13.2526 0.291016 15.0769 2.19657 15.0769 4.63979C15.0769 4.97747 15.044 5.30825 14.9801 5.63472C14.7351 8.31738 12.252 10.6126 8.5875 13.9929L7.5 15L6.4125 13.9929C2.55 10.43 0 8.07248 0 5.19619C0 5.10559 0.00268043 5.01576 0.00796638 4.92677C0.0026694 4.83163 0 4.73599 0 4.63979C0 2.19657 1.82431 0.291016 4.14615 0.291016C5.45785 0.291016 6.71677 0.931471 7.53846 1.93564Z" fill="white"/>
</svg>
