<svg width="17" height="17" viewBox="0 0 17 17" fill="none" xmlns="http://www.w3.org/2000/svg">
<path d="M2.82335 1.03115C2.72487 1.03305 2.62773 1.05433 2.53747 1.09378C2.44721 1.13322 2.36561 1.19006 2.29732 1.26104C2.1594 1.4044 2.08408 1.59667 2.08792 1.79556C2.09177 1.99446 2.17447 2.18367 2.31782 2.32159C2.46118 2.45951 2.65345 2.53483 2.85234 2.53099L14.3328 2.30824L1.07176 15.5692C0.931104 15.7099 0.852082 15.9007 0.852084 16.0996C0.852084 16.2985 0.931105 16.4893 1.07176 16.63C1.21242 16.7706 1.4032 16.8496 1.60212 16.8496C1.80104 16.8496 1.99181 16.7706 2.13247 16.63L15.3921 3.37037L15.1686 14.8487C15.1667 14.9471 15.1842 15.045 15.2201 15.1368C15.2561 15.2285 15.3097 15.3122 15.378 15.3832C15.4463 15.4542 15.5279 15.511 15.6181 15.5505C15.7084 15.5899 15.8055 15.6112 15.904 15.6131C16.0025 15.615 16.1004 15.5975 16.1921 15.5615C16.2838 15.5256 16.3676 15.472 16.4386 15.4037C16.5095 15.3354 16.5664 15.2538 16.6058 15.1635C16.6453 15.0733 16.6665 14.9761 16.6684 14.8777L16.9223 1.79769C16.9249 1.66316 16.9003 1.5295 16.85 1.40471C16.7997 1.27992 16.7247 1.16656 16.6296 1.07142C16.5344 0.976282 16.4211 0.901319 16.2963 0.851021C16.1715 0.800723 16.0378 0.776124 15.9033 0.778697L2.82335 1.03115Z" fill="white"/>
</svg>
