<svg width="15" height="17" viewBox="0 0 15 17" fill="none" xmlns="http://www.w3.org/2000/svg">
<path fill-rule="evenodd" clip-rule="evenodd" d="M0.362779 5.175C0.0883179 5.77174 0.0883179 6.45062 0.0883179 7.80838V12.0488C0.0883179 13.9344 0.0883179 14.8772 0.674104 15.463C1.20565 15.9945 2.03117 16.0437 3.58832 16.0483V11.0488C3.58832 9.94426 4.48375 9.04883 5.58832 9.04883H8.58832C9.69289 9.04883 10.5883 9.94426 10.5883 11.0488V16.0483C12.1455 16.0437 12.971 15.9945 13.5025 15.463C14.0883 14.8772 14.0883 13.9344 14.0883 12.0488V7.80838C14.0883 6.45062 14.0883 5.77174 13.8139 5.175C13.5394 4.57826 13.024 4.13645 11.9931 3.25284L10.9931 2.39569C9.12975 0.798564 8.19809 0 7.08832 0C5.97855 0 5.04689 0.798565 3.18357 2.39569L2.18357 3.25284C1.15268 4.13645 0.63724 4.57826 0.362779 5.175ZM8.58832 16.0488V11.0488H5.58832V16.0488H8.58832Z" fill="white"/>
</svg>
