<svg width="19" height="18" viewBox="0 0 19 18" fill="none" xmlns="http://www.w3.org/2000/svg">
<path fill-rule="evenodd" clip-rule="evenodd" d="M9.08057 18C14.0511 18 18.0806 13.9706 18.0806 9C18.0806 4.02944 14.0511 0 9.08057 0C4.11 0 0.0805664 4.02944 0.0805664 9C0.0805664 13.9706 4.11 18 9.08057 18ZM13.8488 6.64018C14.2024 6.21591 14.145 5.58534 13.7208 5.23178C13.2965 4.87821 12.6659 4.93554 12.3123 5.35982L8.71439 9.67736C8.36767 10.0934 8.17276 10.3238 8.01714 10.4653L8.0112 10.4707L8.00479 10.4659C7.83699 10.339 7.62202 10.1272 7.23906 9.74428L5.78767 8.29289C5.39715 7.90237 4.76398 7.90237 4.37346 8.29289C3.98294 8.68342 3.98294 9.31658 4.37346 9.70711L5.82485 11.1585L5.86568 11.1993L5.86568 11.1993C6.19218 11.526 6.50626 11.8402 6.7985 12.0611C7.12587 12.3087 7.55459 12.5415 8.104 12.5165C8.65341 12.4916 9.05929 12.221 9.3629 11.9448C9.63393 11.6983 9.91829 11.3569 10.2139 11.0021L10.2139 11.0021L10.2508 10.9577L13.8488 6.64018Z" fill="white"/>
</svg>
