<svg width="20" height="20" viewBox="0 0 20 20" fill="none" xmlns="http://www.w3.org/2000/svg">
<path fill-rule="evenodd" clip-rule="evenodd" d="M0 10C0 4.47715 4.47715 0 10 0C15.5228 0 20 4.47715 20 10C20 13.0141 18.6665 15.7167 16.5573 17.5501C16.0996 16.3251 15.306 15.2481 14.2613 14.4465C13.0388 13.5085 11.5409 13 10 13C8.45906 13 6.96118 13.5085 5.73867 14.4465C4.69405 15.2481 3.90038 16.3251 3.44269 17.5501C1.33349 15.7167 0 13.0141 0 10ZM14.8296 18.7059C14.8337 18.7212 14.8381 18.7363 14.8429 18.7512C13.4081 19.5469 11.757 20 10 20C8.24305 20 6.59193 19.5469 5.15711 18.7512C5.16185 18.7363 5.16628 18.7212 5.17037 18.7059C5.45525 17.6427 6.08297 16.7033 6.95619 16.0332C7.82942 15.3632 8.89933 15 10 15C11.1007 15 12.1706 15.3632 13.0438 16.0332C13.917 16.7033 14.5448 17.6427 14.8296 18.7059ZM8 7C8 5.89543 8.89543 5 10 5C11.1046 5 12 5.89543 12 7C12 8.10457 11.1046 9 10 9C8.89543 9 8 8.10457 8 7ZM10 3C7.79086 3 6 4.79086 6 7C6 9.20914 7.79086 11 10 11C12.2091 11 14 9.20914 14 7C14 4.79086 12.2091 3 10 3Z" fill="white"/>
<rect x="0.5" y="0.5" width="19" height="19" rx="9.5" stroke="white"/>
</svg>
