<svg width="19" height="14" viewBox="0 0 19 14" fill="none" xmlns="http://www.w3.org/2000/svg">
<path fill-rule="evenodd" clip-rule="evenodd" d="M0.959246 0.87868C0.0805664 1.75736 0.0805664 3.17157 0.0805664 6V8C0.0805664 10.8284 0.0805664 12.2426 0.959246 13.1213C1.83793 14 3.25214 14 6.08057 14H12.0806C14.909 14 16.3232 14 17.2019 13.1213C18.0806 12.2426 18.0806 10.8284 18.0806 8V6C18.0806 3.17157 18.0806 1.75736 17.2019 0.87868C16.3232 0 14.909 0 12.0806 0H6.08057C3.25214 0 1.83793 0 0.959246 0.87868ZM3.63527 3.16795C3.17574 2.8616 2.55487 2.98577 2.24852 3.4453C1.94216 3.90483 2.06634 4.5257 2.52587 4.83205L7.97117 8.46225C8.64297 8.91012 9.51817 8.91012 10.19 8.46225L15.6353 4.83205C16.0948 4.5257 16.219 3.90483 15.9126 3.4453C15.6063 2.98577 14.9854 2.8616 14.5259 3.16795L9.08057 6.79815L3.63527 3.16795Z" fill="white"/>
</svg>
