<svg width="17" height="18" viewBox="0 0 17 18" fill="none" xmlns="http://www.w3.org/2000/svg">
<path d="M4.93832 16H2.08832C1.53603 16 1.08832 15.5523 1.08832 15V9C1.08832 8.44772 1.53603 8 2.08832 8H4.93832C5.02116 8 5.08832 8.06716 5.08832 8.15V15.85C5.08832 15.9328 5.02116 16 4.93832 16Z" stroke="white" stroke-width="2" stroke-linecap="round"/>
<path d="M5.08832 8L6.92037 5.25192C7.02988 5.08766 7.08832 4.89465 7.08832 4.69722V2C7.08832 1.44772 7.53603 1 8.08832 1H9.08832C10.1929 1 11.0883 1.89543 11.0883 3V8" stroke="white" stroke-width="2" stroke-linecap="round"/>
<path d="M9.08832 8H13.8538C15.0458 8 15.9732 9.03613 15.8416 10.2209L15.286 15.2209C15.1735 16.2337 14.3173 17 13.2982 17H9.50253C9.23731 17 8.98296 16.8946 8.79542 16.7071L8.38121 16.2929C8.19367 16.1054 7.93932 16 7.6741 16H5.08832" stroke="white" stroke-width="2" stroke-linecap="round"/>
</svg>
