<svg width="16" height="15" viewBox="0 0 16 15" fill="none" xmlns="http://www.w3.org/2000/svg">
<path d="M7.61385 12.2952L7.53846 12.3742L7.45554 12.2952C3.87477 8.88731 1.50769 6.63386 1.50769 4.34877C1.50769 2.7674 2.63846 1.58137 4.14615 1.58137C5.30708 1.58137 6.43785 2.37206 6.83738 3.44739H8.23954C8.63908 2.37206 9.76985 1.58137 10.9308 1.58137C12.4385 1.58137 13.5692 2.7674 13.5692 4.34877C13.5692 6.63386 11.2022 8.88731 7.61385 12.2952ZM10.9308 0C9.61908 0 8.36015 0.640456 7.53846 1.64463C6.71677 0.640456 5.45785 0 4.14615 0C1.82431 0 0 1.90555 0 4.34877C0 7.32966 2.56308 9.77288 6.44538 13.4654L7.53846 14.5091L8.63154 13.4654C12.5138 9.77288 15.0769 7.32966 15.0769 4.34877C15.0769 1.90555 13.2526 0 10.9308 0Z" fill="white"/>
</svg>
