<svg width="21" height="20" viewBox="0 0 21 20" fill="none" xmlns="http://www.w3.org/2000/svg">
<path fill-rule="evenodd" clip-rule="evenodd" d="M12.0721 0.541611C12.1594 0.710929 12.1811 0.927766 12.2245 1.36144C12.3065 2.1823 12.3476 2.59274 12.5194 2.81793C12.7373 3.10358 13.0917 3.25038 13.4478 3.20248C13.7285 3.16472 14.0477 2.90352 14.6862 2.38113C15.0235 2.10515 15.1922 1.96716 15.3736 1.90918C15.6041 1.83555 15.8535 1.84798 16.0755 1.94419C16.2503 2.01994 16.4044 2.17402 16.7126 2.4822L17.6061 3.37567C17.9143 3.68385 18.0683 3.83794 18.1441 4.01275C18.2403 4.23478 18.2527 4.48415 18.1791 4.71464C18.1211 4.89612 17.9831 5.06478 17.7071 5.4021C17.1847 6.0406 16.9235 6.35984 16.8858 6.64056C16.8379 6.99662 16.9847 7.35102 17.2703 7.56893C17.4955 7.74072 17.906 7.78176 18.7269 7.86385C19.1605 7.90722 19.3774 7.92891 19.5467 8.01624C19.7618 8.12716 19.9293 8.31228 20.0183 8.53729C20.0883 8.71447 20.0883 8.93239 20.0883 9.36824V10.6319C20.0883 11.0676 20.0883 11.2855 20.0183 11.4626C19.9293 11.6877 19.7617 11.8729 19.5466 11.9838C19.3773 12.0711 19.1605 12.0928 18.7269 12.1361L18.7269 12.1361C17.9063 12.2182 17.496 12.2592 17.2709 12.4309C16.9851 12.6489 16.8382 13.0034 16.8862 13.3596C16.924 13.6402 17.1851 13.9593 17.7073 14.5976C17.9832 14.9348 18.1211 15.1034 18.1791 15.2848C18.2528 15.5154 18.2404 15.7648 18.1441 15.9869C18.0683 16.1617 17.9143 16.3157 17.6062 16.6238L16.7127 17.5174C16.4045 17.8255 16.2504 17.9796 16.0756 18.0554C15.8536 18.1516 15.6042 18.164 15.3737 18.0904C15.1922 18.0324 15.0235 17.8944 14.6862 17.6184L14.6862 17.6184C14.0478 17.096 13.7285 16.8348 13.4478 16.7971C13.0917 16.7492 12.7373 16.896 12.5194 17.1816C12.3476 17.4068 12.3066 17.8173 12.2245 18.6383C12.1811 19.0722 12.1594 19.2891 12.072 19.4585C11.9611 19.6735 11.7761 19.8409 11.5511 19.9299C11.3739 20 11.1559 20 10.7199 20H9.45656C9.02071 20 8.80279 20 8.62561 19.9299C8.4006 19.841 8.21548 19.6734 8.10456 19.4584C8.01723 19.2891 7.99554 19.0722 7.95217 18.6385C7.87008 17.8176 7.82904 17.4072 7.65724 17.182C7.43933 16.8964 7.08495 16.7496 6.72889 16.7975C6.44817 16.8352 6.12891 17.0964 5.49039 17.6189L5.49038 17.6189C5.15305 17.8949 4.98439 18.0329 4.8029 18.0908C4.57242 18.1645 4.32305 18.152 4.10104 18.0558C3.92622 17.9801 3.77212 17.826 3.46393 17.5178L2.57049 16.6243C2.2623 16.3162 2.1082 16.1621 2.03246 15.9873C1.93626 15.7652 1.92382 15.5159 1.99745 15.2854C2.05543 15.1039 2.19342 14.9352 2.46942 14.5979C2.99183 13.9594 3.25303 13.6402 3.29079 13.3594C3.33869 13.0034 3.19189 12.649 2.90624 12.4311C2.68105 12.2593 2.27062 12.2182 1.44975 12.1361C1.01608 12.0928 0.799248 12.0711 0.62993 11.9838C0.414876 11.8728 0.247333 11.6877 0.158365 11.4627C0.0883179 11.2855 0.0883179 11.0676 0.0883179 10.6318V9.36835C0.0883179 8.9324 0.0883179 8.71442 0.158402 8.53721C0.247368 8.31226 0.414859 8.12719 0.629841 8.01628C0.799195 7.92891 1.01609 7.90722 1.44987 7.86384H1.44987H1.44988C2.27096 7.78173 2.68151 7.74068 2.90673 7.56881C3.19227 7.35092 3.33902 6.99664 3.29119 6.64066C3.25346 6.35987 2.99217 6.04052 2.46959 5.40182C2.19348 5.06435 2.05543 4.89561 1.99745 4.71405C1.92388 4.48364 1.93632 4.23438 2.03245 4.01243C2.1082 3.83754 2.26235 3.68339 2.57065 3.37509L3.46397 2.48177L3.46397 2.48177C3.77217 2.17357 3.92627 2.01947 4.10108 1.94373C4.3231 1.84753 4.57246 1.8351 4.80295 1.90872C4.98443 1.9667 5.15313 2.10472 5.49051 2.38076C6.12893 2.9031 6.44814 3.16427 6.72876 3.20207C7.08493 3.25003 7.43945 3.10319 7.65739 2.81742C7.82909 2.59227 7.87012 2.18195 7.95219 1.36131C7.99554 0.927757 8.01722 0.710983 8.10451 0.541704C8.21543 0.326575 8.40062 0.158981 8.62572 0.0700092C8.80285 0 9.0207 0 9.45641 0H10.7201C11.1559 0 11.3738 0 11.551 0.0700478C11.776 0.159016 11.9612 0.326558 12.0721 0.541611ZM10.0883 14C12.2975 14 14.0883 12.2091 14.0883 10C14.0883 7.79086 12.2975 6 10.0883 6C7.87918 6 6.08832 7.79086 6.08832 10C6.08832 12.2091 7.87918 14 10.0883 14Z" fill="white"/>
</svg>
