<svg width="19" height="18" viewBox="0 0 19 18" fill="none" xmlns="http://www.w3.org/2000/svg">
<path d="M9.70032 0C8.51842 0 7.3481 0.232792 6.25617 0.685084C5.16424 1.13738 4.17208 1.80031 3.33636 2.63604C1.64853 4.32387 0.700317 6.61305 0.700317 9C0.700317 11.3869 1.64853 13.6761 3.33636 15.364C4.17208 16.1997 5.16424 16.8626 6.25617 17.3149C7.3481 17.7672 8.51842 18 9.70032 18C12.0873 18 14.3765 17.0518 16.0643 15.364C17.7521 13.6761 18.7003 11.3869 18.7003 9C18.7003 7.8181 18.4675 6.64778 18.0152 5.55585C17.5629 4.46392 16.9 3.47177 16.0643 2.63604C15.2286 1.80031 14.2364 1.13738 13.1445 0.685084C12.0525 0.232792 10.8822 0 9.70032 0ZM13.4803 12.78L8.80032 9.9V4.5H10.1503V9.18L14.2003 11.61L13.4803 12.78Z" fill="white"/>
</svg>
