<svg width="18" height="23" viewBox="0 0 18 23" fill="none" xmlns="http://www.w3.org/2000/svg">
<path d="M8.50954 0.245931C9.00365 -0.081977 9.65048 -0.081977 10.1446 0.245931L10.9441 0.771482C11.2137 0.946666 11.5281 1.03201 11.847 1.01404L12.8038 0.955649C13.3967 0.919714 13.9537 1.24313 14.2187 1.77317L14.65 2.63112C14.7937 2.9186 15.0273 3.14769 15.3103 3.29143L16.1772 3.72714C16.7072 3.99217 17.0307 4.54916 16.9947 5.14209L16.9363 6.09886C16.9184 6.41779 17.0037 6.73671 17.1789 7.00173L17.7089 7.80129C18.0368 8.2954 18.0368 8.94223 17.7089 9.43634L17.1789 10.2404C17.0037 10.5099 16.9184 10.8243 16.9363 11.1433L16.9947 12.1C17.0307 12.693 16.7072 13.2499 16.1772 13.515L15.3192 13.9462C15.0318 14.0899 14.8027 14.3235 14.6589 14.6065L14.2232 15.4734C13.9582 16.0035 13.4012 16.3269 12.8083 16.291L11.8515 16.2326C11.5326 16.2146 11.2137 16.2999 10.9486 16.4751L10.1491 17.0052C9.65498 17.3331 9.00814 17.3331 8.51404 17.0052L7.70999 16.4751C7.44047 16.2999 7.12604 16.2146 6.80712 16.2326L5.85035 16.291C5.25742 16.3269 4.70042 16.0035 4.4354 15.4734L4.00418 14.6155C3.86044 14.328 3.62686 14.0989 3.34387 13.9552L2.47694 13.5195C1.94689 13.2544 1.62348 12.6974 1.65941 12.1045L1.71781 11.1477C1.73578 10.8288 1.65043 10.5099 1.47525 10.2449L0.949695 9.44083C0.621787 8.94672 0.621787 8.29989 0.949695 7.80578L1.47525 7.00622C1.65043 6.73671 1.73578 6.42228 1.71781 6.10335L1.65941 5.14658C1.62348 4.55365 1.94689 3.99666 2.47694 3.73164L3.33489 3.30042C3.62237 3.15218 3.85595 2.9186 3.99969 2.63112L4.43091 1.77317C4.69593 1.24313 5.25292 0.919714 5.84585 0.955649L6.80263 1.01404C7.12155 1.03201 7.44047 0.946666 7.7055 0.771482L8.50954 0.245931ZM12.9206 8.6233C12.9206 7.67025 12.542 6.75622 11.8681 6.08231C11.1942 5.40839 10.2801 5.02979 9.32707 5.02979C8.37401 5.02979 7.45999 5.40839 6.78607 6.08231C6.11216 6.75622 5.73356 7.67025 5.73356 8.6233C5.73356 9.57636 6.11216 10.4904 6.78607 11.1643C7.45999 11.8382 8.37401 12.2168 9.32707 12.2168C10.2801 12.2168 11.1942 11.8382 11.8681 11.1643C12.542 10.4904 12.9206 9.57636 12.9206 8.6233ZM0.761035 19.844L2.69704 15.2399C2.70602 15.2443 2.71052 15.2488 2.71501 15.2578L3.14623 16.1158C3.67178 17.1579 4.76331 17.7913 5.9312 17.7239L6.88797 17.6655C6.89696 17.6655 6.91043 17.6655 6.91942 17.6745L7.71897 18.2045C7.94806 18.3527 8.19062 18.4695 8.44217 18.5504L6.75322 22.5616C6.6499 22.8087 6.42082 22.9749 6.15579 22.9973C5.89077 23.0198 5.63474 22.8985 5.49099 22.6739L4.04461 20.4594L1.52466 20.8323C1.26862 20.8682 1.01258 20.7649 0.850873 20.5627C0.689165 20.3606 0.657722 20.0821 0.756543 19.844H0.761035ZM11.9009 22.5571L10.212 18.5504C10.4635 18.4695 10.7061 18.3572 10.9352 18.2045L11.7347 17.6745C11.7437 17.67 11.7527 17.6655 11.7662 17.6655L12.7229 17.7239C13.8908 17.7913 14.9824 17.1579 15.5079 16.1158L15.9391 15.2578C15.9436 15.2488 15.9481 15.2443 15.9571 15.2399L17.8976 19.844C17.9964 20.0821 17.9605 20.3561 17.8033 20.5627C17.646 20.7694 17.3855 20.8727 17.1295 20.8323L14.6095 20.4594L13.1631 22.6694C13.0194 22.894 12.7634 23.0153 12.4983 22.9929C12.2333 22.9704 12.0042 22.7997 11.9009 22.5571Z" fill="white"/>
</svg>
