<svg width="18" height="18" viewBox="0 0 18 18" fill="none" xmlns="http://www.w3.org/2000/svg">
<path fill-rule="evenodd" clip-rule="evenodd" d="M14.1208 6.96758L15.9168 5.17157C16.462 4.62632 16.7346 4.3537 16.8804 4.0596C17.1577 3.50005 17.1577 2.8431 16.8804 2.28354C16.7346 1.98945 16.462 1.71682 15.9168 1.17157C15.3715 0.626323 15.0989 0.353698 14.8048 0.207962C14.2452 -0.0693207 13.5883 -0.0693207 13.0287 0.207962C12.7346 0.353698 12.462 0.626323 11.9168 1.17157L10.0981 2.99023C11.062 4.64083 12.4481 6.01639 14.1208 6.96758ZM8.64365 4.44469L1.77314 11.3152C1.34808 11.7403 1.13555 11.9528 0.995818 12.2139C0.856084 12.475 0.797138 12.7697 0.679248 13.3592L0.0638519 16.4361C-0.00267025 16.7687 -0.0359313 16.9351 0.0586767 17.0297C0.153285 17.1243 0.31959 17.091 0.6522 17.0245L3.72918 16.4091C4.31863 16.2912 4.61336 16.2323 4.87446 16.0925C5.13555 15.9528 5.34808 15.7403 5.77315 15.3152L12.6625 8.42579C11.0409 7.41014 9.66919 6.04785 8.64365 4.44469Z" fill="white"/>
</svg>
