<svg width="24" height="23" viewBox="0 0 24 23" fill="none" xmlns="http://www.w3.org/2000/svg">
<path fill-rule="evenodd" clip-rule="evenodd" d="M22 11C22 15.9706 17.9706 20 13 20C8.02944 20 4 15.9706 4 11C4 6.02944 8.02944 2 13 2C17.9706 2 22 6.02944 22 11ZM16.7071 14.7071C16.3166 15.0976 15.6834 15.0976 15.2929 14.7071L13 12.4142L10.7071 14.7071C10.3166 15.0976 9.68342 15.0976 9.29289 14.7071C8.90237 14.3166 8.90237 13.6834 9.29289 13.2929L11.5858 11L9.29289 8.70711C8.90237 8.31659 8.90237 7.68342 9.29289 7.2929C9.68342 6.90238 10.3166 6.90238 10.7071 7.2929L13 9.58579L15.2929 7.2929C15.6834 6.90238 16.3166 6.90238 16.7071 7.2929C17.0976 7.68342 17.0976 8.31659 16.7071 8.70711L14.4142 11L16.7071 13.2929C17.0976 13.6834 17.0976 14.3166 16.7071 14.7071Z" fill="white"/>
</svg>
