<svg width="18" height="19" viewBox="0 0 18 19" fill="none" xmlns="http://www.w3.org/2000/svg">
<path d="M13 1L13 4M5 1L5 4" stroke="white" stroke-width="2" stroke-linecap="round"/>
<path fill-rule="evenodd" clip-rule="evenodd" d="M11 2H7L7 4C7 5.10457 6.10457 6 5 6C3.89543 6 3 5.10457 3 4L3 2.07612C2.02492 2.17203 1.36857 2.38879 0.87868 2.87868C0 3.75736 0 5.17157 0 8V13C0 15.8284 0 17.2426 0.87868 18.1213C1.75736 19 3.17157 19 6 19H12C14.8284 19 16.2426 19 17.1213 18.1213C18 17.2426 18 15.8284 18 13V8C18 5.17157 18 3.75736 17.1213 2.87868C16.6314 2.38879 15.9751 2.17203 15 2.07612L15 4C15 5.10457 14.1046 6 13 6C11.8954 6 11 5.10457 11 4L11 2ZM4 10C4 9.44772 4.44772 9 5 9L13 9C13.5523 9 14 9.44771 14 10C14 10.5523 13.5523 11 13 11L5 11C4.44772 11 4 10.5523 4 10ZM5 13C4.44772 13 4 13.4477 4 14C4 14.5523 4.44772 15 5 15L13 15C13.5523 15 14 14.5523 14 14C14 13.4477 13.5523 13 13 13L5 13Z" fill="white"/>
</svg>
